<?xml version="1.0" encoding="UTF-8"?>
<!DOCTYPE svg PUBLIC "-//W3C//DTD SVG 1.1//EN" "http://www.w3.org/Graphics/SVG/1.1/DTD/svg11.dtd">
<!-- Creator: CorelDRAW X7 -->
<svg xmlns="http://www.w3.org/2000/svg" xml:space="preserve" width="120mm" height="120mm" version="1.1" style="shape-rendering:geometricPrecision; text-rendering:geometricPrecision; image-rendering:optimizeQuality; fill-rule:evenodd; clip-rule:evenodd"
viewBox="0 0 12000 12000"
 xmlns:xlink="http://www.w3.org/1999/xlink">
 <defs>
  <style type="text/css">
   <![CDATA[
    .fil2 {fill:#221E1F;fill-rule:nonzero}
    .fil1 {fill:#92D8D6;fill-rule:nonzero}
    .fil3 {fill:#FB65C5;fill-rule:nonzero}
    .fil4 {fill:#FFF100;fill-rule:nonzero}
    .fil0 {fill:white;fill-rule:nonzero}
   ]]>
  </style>
 </defs>
 <g id="Layer_x0020_1">
  <metadata id="CorelCorpID_0Corel-Layer"/>
  <g id="_2022990172192">
   <g>
    <path class="fil0" d="M7131 3207c-218,315 -581,522 -993,522 -412,0 -776,-207 -994,-522l-1377 193 0 6140 2371 0 2370 0 0 -6140 -1377 -193z"/>
    <polygon class="fil1" points="3767,3400 2226,4562 3127,5865 3767,5462 "/>
    <polygon class="fil1" points="8508,3400 10049,4562 9148,5865 8508,5462 "/>
    <path class="fil2" d="M3127 5912c-15,0 -29,-7 -38,-20l-901 -1304c-14,-21 -9,-48 11,-63l1540 -1162c14,-10 33,-12 49,-4 15,8 25,24 25,41l0 2062c0,16 -8,31 -21,39l-640 403c-8,5 -16,8 -25,8zm-837 -1340l0 0 850 1231 581 -366 0 -1944 -1431 1079z"/>
    <path class="fil2" d="M9148 5912c-8,0 -17,-3 -24,-8l-640 -403c-14,-8 -22,-23 -22,-39l0 -2062c0,-17 10,-33 26,-41 15,-8 34,-6 48,4l1541 1162c20,15 24,42 10,63l-901 1304c-9,13 -23,20 -38,20zm-594 -475l0 0 581 366 851 -1231 -1432 -1079 0 1944z"/>
    <path class="fil2" d="M8508 9586l-4741 0c-25,0 -46,-21 -46,-46l0 -6140c0,-23 17,-42 40,-46l1377 -192c17,-3 34,5 44,19 218,314 575,501 956,501 380,0 738,-187 955,-501 10,-14 27,-22 45,-19l1377 192c22,4 39,23 39,46l0 6140c0,25 -20,46 -46,46zm-4695 -93l0 0 4649 0 0 -6053 -1309 -183c-237,325 -614,518 -1015,518 -402,0 -779,-193 -1015,-518l-1310 183 0 6053z"/>
   </g>
   <g>
    <path class="fil3" d="M2742 2851c-100,0 -121,127 -99,248 22,121 99,180 99,180 0,0 78,-59 100,-180 22,-121 1,-248 -100,-248z"/>
    <path class="fil3" d="M2324 3172c-20,99 100,144 223,146 123,3 195,-62 195,-62 0,0 -42,-87 -156,-133 -114,-45 -242,-50 -262,49z"/>
    <path class="fil3" d="M2481 3580c79,63 174,-24 232,-132 58,-108 33,-202 33,-202 0,0 -97,-3 -189,78 -92,81 -155,194 -76,256z"/>
    <path class="fil3" d="M2998 3580c-80,63 -175,-24 -232,-132 -58,-108 -34,-202 -34,-202 0,0 98,-3 190,78 92,81 155,194 76,256z"/>
    <path class="fil3" d="M3161 3172c20,99 -100,144 -223,146 -123,3 -196,-62 -196,-62 0,0 43,-87 157,-133 114,-45 242,-50 262,49z"/>
    <path class="fil4" d="M2842 3256c0,55 -45,100 -100,100 -55,0 -99,-45 -99,-100 0,-55 44,-99 99,-99 55,0 100,44 100,99z"/>
   </g>
   <g>
    <path class="fil3" d="M9279 6041c-101,0 -122,127 -100,247 22,121 100,180 100,180 0,0 77,-59 99,-180 22,-120 1,-247 -99,-247z"/>
    <path class="fil3" d="M8860 6361c-20,99 100,144 223,147 123,2 196,-63 196,-63 0,0 -43,-87 -157,-133 -114,-45 -242,-50 -262,49z"/>
    <path class="fil3" d="M9017 6770c79,62 174,-25 232,-133 58,-108 33,-202 33,-202 0,0 -97,-2 -189,79 -92,81 -155,193 -76,256z"/>
    <path class="fil3" d="M9534 6770c-79,62 -174,-25 -232,-133 -58,-108 -34,-202 -34,-202 0,0 98,-2 190,79 92,81 155,193 76,256z"/>
    <path class="fil3" d="M9697 6361c20,99 -100,144 -223,147 -123,2 -195,-63 -195,-63 0,0 42,-87 156,-133 114,-45 242,-50 262,49z"/>
    <path class="fil4" d="M9378 6445c0,55 -44,100 -99,100 -55,0 -100,-45 -100,-100 0,-55 45,-99 100,-99 55,0 99,44 99,99z"/>
   </g>
   <g>
    <path class="fil3" d="M3193 6267c-70,0 -85,88 -69,172 15,85 69,125 69,125 0,0 54,-40 69,-125 16,-84 1,-172 -69,-172z"/>
    <path class="fil3" d="M2901 6490c-14,69 70,101 156,102 85,2 136,-43 136,-43 0,0 -29,-61 -109,-93 -79,-31 -169,-35 -183,34z"/>
    <path class="fil3" d="M3011 6775c55,43 121,-17 162,-93 40,-75 23,-141 23,-141 0,0 -68,-1 -132,55 -64,57 -108,135 -53,179z"/>
    <path class="fil3" d="M3371 6775c-55,43 -121,-17 -162,-93 -40,-75 -23,-141 -23,-141 0,0 68,-1 132,55 64,57 108,135 53,179z"/>
    <path class="fil3" d="M3485 6490c14,69 -70,101 -156,102 -85,2 -136,-43 -136,-43 0,0 30,-61 109,-93 79,-31 169,-35 183,34z"/>
    <path class="fil4" d="M3262 6549c0,38 -31,69 -69,69 -38,0 -69,-31 -69,-69 0,-38 31,-69 69,-69 38,0 69,31 69,69z"/>
   </g>
   <g>
    <path class="fil3" d="M9134 9278c-70,0 -84,89 -69,173 15,84 69,125 69,125 0,0 54,-41 70,-125 15,-84 1,-173 -70,-173z"/>
    <path class="fil3" d="M8843 9502c-14,69 70,100 155,102 86,1 136,-44 136,-44 0,0 -29,-61 -109,-92 -79,-32 -169,-35 -182,34z"/>
    <path class="fil3" d="M8952 9786c55,44 122,-17 162,-92 40,-75 23,-141 23,-141 0,0 -68,-1 -132,55 -64,56 -108,135 -53,178z"/>
    <path class="fil3" d="M9312 9786c-55,44 -121,-17 -161,-92 -41,-75 -24,-141 -24,-141 0,0 68,-1 132,55 65,56 108,135 53,178z"/>
    <path class="fil3" d="M9426 9502c14,69 -70,100 -155,102 -86,1 -137,-44 -137,-44 0,0 30,-61 109,-92 80,-32 169,-35 183,34z"/>
    <path class="fil4" d="M9204 9560c0,39 -31,70 -70,70 -38,0 -69,-31 -69,-70 0,-38 31,-69 69,-69 39,0 70,31 70,69z"/>
   </g>
   <g>
    <path class="fil3" d="M2321 7705c-99,0 -120,125 -98,245 22,119 98,177 98,177 0,0 77,-58 99,-177 22,-120 1,-245 -99,-245z"/>
    <path class="fil3" d="M1907 8022c-20,98 99,142 221,145 121,2 193,-62 193,-62 0,0 -41,-87 -154,-131 -113,-45 -240,-50 -260,48z"/>
    <path class="fil3" d="M2063 8426c78,62 172,-24 229,-131 57,-107 33,-200 33,-200 0,0 -96,-2 -187,78 -91,80 -153,191 -75,253z"/>
    <path class="fil3" d="M2574 8426c-78,62 -172,-24 -230,-131 -57,-107 -33,-200 -33,-200 0,0 97,-2 188,78 91,80 153,191 75,253z"/>
    <path class="fil3" d="M2736 8022c20,98 -100,142 -221,145 -121,2 -194,-62 -194,-62 0,0 42,-87 155,-131 113,-45 240,-50 260,48z"/>
    <path class="fil4" d="M2420 8105c0,55 -44,99 -99,99 -54,0 -98,-44 -98,-99 0,-54 44,-98 98,-98 55,0 99,44 99,98z"/>
   </g>
   <g>
    <path class="fil3" d="M7827 2199c-100,0 -120,126 -99,245 22,120 99,178 99,178 0,0 77,-58 98,-178 22,-119 2,-245 -98,-245z"/>
    <path class="fil3" d="M7412 2516c-19,98 100,143 221,145 122,2 194,-61 194,-61 0,0 -42,-87 -155,-132 -112,-45 -240,-50 -260,48z"/>
    <path class="fil3" d="M7568 2921c79,62 173,-24 230,-132 57,-107 33,-200 33,-200 0,0 -96,-2 -188,78 -91,80 -153,192 -75,254z"/>
    <path class="fil3" d="M8079 2921c-78,62 -172,-24 -229,-132 -57,-107 -33,-200 -33,-200 0,0 96,-2 187,78 92,80 154,192 75,254z"/>
    <path class="fil3" d="M8241 2516c20,98 -99,143 -221,145 -121,2 -193,-61 -193,-61 0,0 42,-87 155,-132 112,-45 240,-50 259,48z"/>
    <path class="fil4" d="M7925 2600c0,54 -44,98 -98,98 -54,0 -99,-44 -99,-98 0,-55 45,-99 99,-99 54,0 98,44 98,99z"/>
   </g>
   <g>
    <path class="fil3" d="M4548 8666c-75,0 -91,95 -74,184 16,90 74,133 74,133 0,0 57,-43 74,-133 16,-89 1,-184 -74,-184z"/>
    <path class="fil3" d="M4237 8904c-15,74 74,107 166,109 91,2 145,-46 145,-46 0,0 -32,-65 -116,-99 -85,-34 -180,-37 -195,36z"/>
    <path class="fil3" d="M4354 9207c58,47 129,-18 172,-98 43,-80 25,-150 25,-150 0,0 -73,-2 -141,58 -68,60 -115,144 -56,190z"/>
    <path class="fil3" d="M4737 9207c-59,47 -129,-18 -172,-98 -43,-80 -25,-150 -25,-150 0,0 72,-2 141,58 68,60 115,144 56,190z"/>
    <path class="fil3" d="M4859 8904c14,74 -75,107 -166,109 -91,2 -145,-46 -145,-46 0,0 31,-65 116,-99 84,-34 180,-37 195,36z"/>
    <path class="fil4" d="M4622 8967c0,41 -34,74 -74,74 -41,0 -74,-33 -74,-74 0,-41 33,-74 74,-74 40,0 74,33 74,74z"/>
   </g>
   <g>
    <path class="fil3" d="M7556 7426c-60,0 -72,76 -59,148 13,72 59,107 59,107 0,0 47,-35 60,-107 13,-72 1,-148 -60,-148z"/>
    <path class="fil3" d="M7307 7617c-12,59 60,86 133,87 73,2 116,-37 116,-37 0,0 -25,-52 -93,-79 -68,-27 -144,-30 -156,29z"/>
    <path class="fil3" d="M7401 7861c47,37 103,-15 138,-79 34,-65 20,-121 20,-121 0,0 -58,-1 -113,47 -55,48 -93,115 -45,153z"/>
    <path class="fil3" d="M7709 7861c-48,37 -104,-15 -139,-79 -34,-65 -20,-121 -20,-121 0,0 58,-1 113,47 55,48 93,115 46,153z"/>
    <path class="fil3" d="M7806 7617c12,59 -60,86 -133,87 -73,2 -117,-37 -117,-37 0,0 26,-52 94,-79 68,-27 144,-30 156,29z"/>
    <path class="fil4" d="M7616 7667c0,33 -27,60 -60,60 -32,0 -59,-27 -59,-60 0,-32 27,-59 59,-59 33,0 60,27 60,59z"/>
   </g>
  </g>
 </g>
</svg>
