<?xml version="1.0" encoding="UTF-8"?>
<!DOCTYPE svg PUBLIC "-//W3C//DTD SVG 1.1//EN" "http://www.w3.org/Graphics/SVG/1.1/DTD/svg11.dtd">
<!-- Creator: CorelDRAW X7 -->
<svg xmlns="http://www.w3.org/2000/svg" xml:space="preserve" width="120mm" height="120mm" version="1.1" style="shape-rendering:geometricPrecision; text-rendering:geometricPrecision; image-rendering:optimizeQuality; fill-rule:evenodd; clip-rule:evenodd"
viewBox="0 0 12000 12000"
 xmlns:xlink="http://www.w3.org/1999/xlink">
 <defs>
  <style type="text/css">
   <![CDATA[
    .fil3 {fill:#221E1F;fill-rule:nonzero}
    .fil1 {fill:#92D8D6;fill-rule:nonzero}
    .fil2 {fill:#E0F4FE;fill-rule:nonzero}
    .fil0 {fill:white;fill-rule:nonzero}
   ]]>
  </style>
 </defs>
 <g id="Layer_x0020_1">
  <metadata id="CorelCorpID_0Corel-Layer"/>
  <g id="_2022996881376">
   <polygon class="fil0" points="9021,10196 2979,10196 2979,1804 9021,1804 "/>
   <polygon class="fil1" points="9021,3404 2979,3404 2979,1804 9021,1804 "/>
   <path class="fil2" d="M8311 6498c0,1276 -1035,2311 -2311,2311 -1276,0 -2311,-1035 -2311,-2311 0,-1277 1035,-2311 2311,-2311 1276,0 2311,1034 2311,2311z"/>
   <polygon class="fil1" points="2979,9331 2979,10196 9021,10196 9021,9331 "/>
   <path class="fil0" d="M4228 2622c0,205 -165,370 -370,370 -205,0 -370,-165 -370,-370 0,-205 165,-370 370,-370 205,0 370,165 370,370z"/>
   <path class="fil0" d="M5355 2622c0,205 -166,370 -371,370 -204,0 -370,-165 -370,-370 0,-205 166,-370 370,-370 205,0 371,165 371,370z"/>
   <polygon class="fil0" points="8575,2913 6821,2913 6821,2331 8575,2331 "/>
   <path class="fil3" d="M6000 8855c-1300,0 -2357,-1057 -2357,-2357 0,-1300 1057,-2358 2357,-2358 1300,0 2357,1058 2357,2358 0,1300 -1057,2357 -2357,2357zm0 -4622l0 0c-1249,0 -2265,1016 -2265,2265 0,1249 1016,2265 2265,2265 1249,0 2265,-1016 2265,-2265 0,-1249 -1016,-2265 -2265,-2265z"/>
   <path class="fil0" d="M8003 6498c0,1106 -897,2003 -2003,2003 -1106,0 -2003,-897 -2003,-2003 0,-1106 897,-2003 2003,-2003 1106,0 2003,897 2003,2003z"/>
   <path class="fil3" d="M3858 3039c-230,0 -417,-187 -417,-417 0,-230 187,-417 417,-417 230,0 417,187 417,417 0,230 -187,417 -417,417zm0 -741l0 0c-179,0 -324,145 -324,324 0,179 145,324 324,324 179,0 324,-145 324,-324 0,-179 -145,-324 -324,-324z"/>
   <path class="fil3" d="M4984 3039c-230,0 -416,-187 -416,-417 0,-230 186,-417 416,-417 230,0 417,187 417,417 0,230 -187,417 -417,417zm0 -741l0 0c-179,0 -324,145 -324,324 0,179 145,324 324,324 179,0 324,-145 324,-324 0,-179 -145,-324 -324,-324z"/>
   <path class="fil3" d="M9021 3451l-6042 0c-25,0 -46,-21 -46,-47l0 -1600c0,-25 21,-46 46,-46l6042 0c25,0 46,21 46,46l0 1600c0,26 -21,47 -46,47zm-5996 -93l0 0 5950 0 0 -1508 -5950 0 0 1508z"/>
   <path class="fil3" d="M8575 2959l-1754 0c-25,0 -46,-20 -46,-46l0 -582c0,-26 21,-46 46,-46l1754 0c26,0 47,20 47,46l0 582c0,26 -21,46 -47,46zm-1708 -92l0 0 1662 0 0 -490 -1662 0 0 490z"/>
   <path class="fil3" d="M9021 10242l-6042 0c-25,0 -46,-21 -46,-46l0 -8392c0,-25 21,-46 46,-46l6042 0c25,0 46,21 46,46l0 8392c0,25 -21,46 -46,46zm-5996 -92l0 0 5950 0 0 -8300 -5950 0 0 8300z"/>
   <path class="fil1" d="M4061 7003c224,862 1007,1498 1939,1498 914,0 1685,-613 1925,-1450l-150 86c-533,306 -1185,320 -1731,38l-32 -18c-600,-340 -1315,-392 -1951,-154z"/>
   <path class="fil3" d="M6000 8547c-1130,0 -2049,-919 -2049,-2049 0,-1130 919,-2049 2049,-2049 1130,0 2049,919 2049,2049 0,1130 -919,2049 -2049,2049zm0 -4006l0 0c-1079,0 -1957,878 -1957,1957 0,1079 878,1957 1957,1957 1079,0 1957,-878 1957,-1957 0,-1079 -878,-1957 -1957,-1957z"/>
   <path class="fil2" d="M7134 6018c-183,0 -330,148 -330,330 0,182 147,330 330,330 182,0 330,-148 330,-330 0,-182 -148,-330 -330,-330zm132 330l0 0c-47,0 -85,-38 -85,-85 0,-47 38,-85 85,-85 46,0 84,38 84,85 0,47 -38,85 -84,85z"/>
   <path class="fil2" d="M6705 6601c0,58 -46,104 -104,104 -57,0 -103,-46 -103,-104 0,-57 46,-103 103,-103 58,0 104,46 104,103z"/>
   <path class="fil2" d="M7142 6922c0,104 -84,188 -188,188 -104,0 -188,-84 -188,-188 0,-103 84,-188 188,-188 104,0 188,85 188,188z"/>
  </g>
 </g>
</svg>
