<?xml version="1.0" encoding="UTF-8"?>
<!DOCTYPE svg PUBLIC "-//W3C//DTD SVG 1.1//EN" "http://www.w3.org/Graphics/SVG/1.1/DTD/svg11.dtd">
<!-- Creator: CorelDRAW X7 -->
<svg xmlns="http://www.w3.org/2000/svg" xml:space="preserve" width="120mm" height="120mm" version="1.1" style="shape-rendering:geometricPrecision; text-rendering:geometricPrecision; image-rendering:optimizeQuality; fill-rule:evenodd; clip-rule:evenodd"
viewBox="0 0 12000 12000"
 xmlns:xlink="http://www.w3.org/1999/xlink">
 <defs>
  <style type="text/css">
   <![CDATA[
    .fil3 {fill:#221E1F;fill-rule:nonzero}
    .fil2 {fill:#92D8D6;fill-rule:nonzero}
    .fil1 {fill:#E0F4FE;fill-rule:nonzero}
    .fil0 {fill:white;fill-rule:nonzero}
   ]]>
  </style>
 </defs>
 <g id="Layer_x0020_1">
  <metadata id="CorelCorpID_0Corel-Layer"/>
  <g id="_2022996876736">
   <path class="fil0" d="M775 8561c0,0 120,-261 328,-643 904,-1654 2551,-2770 4422,-2997l0 0c631,-77 1269,-78 1901,-4l1122 95 0 3549 -7773 0z"/>
   <path class="fil0" d="M1329 7540l7219 -442 0 -596 -6855 537c-130,159 -251,327 -364,501z"/>
   <g>
    <path class="fil0" d="M2646 6964c0,0 467,-728 1299,-1215 431,-252 668,-475 794,-677 -1199,316 -2266,1007 -3045,1966l952 -74z"/>
    <path class="fil0" d="M1679 7057c-53,65 -104,132 -154,200l0 0c50,-68 101,-135 154,-200z"/>
   </g>
   <polygon class="fil1" points="8135,4977 8249,4312 8548,4374 8548,5012 "/>
   <path class="fil2" d="M1103 7918c-208,382 -328,643 -328,643l7773 0 0 -1463 -7219 442c-79,123 -155,248 -226,378z"/>
   <path class="fil1" d="M5894 5477c-139,10 -275,21 -396,37 -199,25 -371,149 -457,331 -10,21 -18,43 -26,66l462 -36c124,-10 236,-81 298,-189l119 -209z"/>
   <path class="fil1" d="M5969 6686l49 -205c14,-59 64,-103 125,-110l944 -103c63,-7 123,29 148,87l104 242 -1370 89z"/>
   <path class="fil2" d="M3159 5751c487,-301 1019,-531 1580,-679l-1155 0c-158,0 -305,76 -395,205 -78,111 -106,250 -77,382l17 75 30 17z"/>
   <path class="fil3" d="M8548 8607l-7773 0c-15,0 -30,-8 -39,-21 -8,-13 -9,-30 -3,-44 1,-3 123,-267 330,-647 908,-1663 2574,-2792 4456,-3020 635,-77 1278,-78 1912,-4l1121 95c24,2 42,22 42,46l0 3549c0,25 -21,46 -46,46zm-7700 -92l0 0 7653 0 0 -3460 -1079 -92c-629,-73 -1265,-72 -1892,4 -1852,224 -3492,1336 -4386,2973 -145,266 -248,474 -296,575z"/>
   <path class="fil3" d="M8778 8849l-8204 0c-80,0 -144,-65 -144,-144 0,-80 64,-144 144,-144l8204 0c79,0 144,64 144,144 0,79 -65,144 -144,144z"/>
   <path class="fil3" d="M5600 6758c-179,0 -348,-74 -468,-203l-25 -27c-178,-192 -220,-467 -108,-703 93,-197 278,-330 494,-357 366,-46 873,-63 1196,-63 454,0 1162,125 1169,126 22,4 38,24 38,46l0 980c0,24 -19,44 -43,46l-2253 155c0,0 0,0 0,0zm1089 -1260l0 0c-320,0 -823,16 -1185,61 -184,24 -342,138 -421,306 -96,201 -60,436 92,600l25 27c102,110 247,173 397,173l2207 -151 0 -898c-153,-26 -729,-118 -1115,-118z"/>
   <path class="fil3" d="M8548 8607l-7773 0c-15,0 -30,-8 -39,-21 -8,-13 -9,-30 -3,-44 1,-3 123,-267 330,-647 68,-124 144,-252 227,-380 8,-12 22,-20 36,-21l7219 -442c12,-1 25,4 34,13 10,8 15,21 15,33l0 1463c0,25 -21,46 -46,46zm-7700 -92l0 0 7653 0 0 -1367 -7146 437c-77,120 -148,239 -211,355 -145,266 -248,474 -296,575z"/>
   <path class="fil3" d="M1329 7587c-16,0 -32,-9 -40,-23 -9,-15 -8,-34 1,-49 115,-177 238,-347 367,-506 8,-9 20,-16 32,-17l6855 -536c13,-1 26,4 35,12 10,9 15,21 15,34l0 596c0,25 -19,45 -44,46l-7218 443c-1,0 -2,0 -3,0zm387 -504l0 0c-103,129 -203,265 -298,406l7083 -434 0 -503 -6785 531z"/>
   <g>
    <path class="fil3" d="M1694 7085c-17,0 -32,-10 -40,-25 -9,-16 -7,-36 5,-51 792,-976 1853,-1662 3068,-1982 19,-4 38,2 49,17 12,16 12,36 2,52 -144,232 -409,459 -810,693 -813,476 -1279,1193 -1283,1200 -8,12 -21,20 -36,21l-951 75c-1,0 -2,0 -4,0zm2933 -1934l0 0c-1110,318 -2083,949 -2827,1833l820 -64c81,-120 546,-768 1301,-1210 327,-191 559,-375 706,-559z"/>
    <path class="fil3" d="M1525 7303c-1,0 -3,0 -5,0 -16,-2 -31,-12 -37,-27 -7,-16 -5,-33 5,-46 49,-68 101,-136 155,-202 0,0 0,0 0,0 16,-20 45,-23 65,-7 20,16 23,45 7,65 -50,62 -100,127 -152,198 -9,12 -23,19 -38,19z"/>
   </g>
   <path class="fil3" d="M3159 5797c-8,0 -16,-2 -23,-6l-30 -17c-11,-6 -19,-17 -22,-30l-17 -75c-32,-144 -2,-297 84,-418 99,-141 261,-225 433,-225l1155 0c23,0 43,17 46,40 3,23 -12,45 -34,51 -553,145 -1081,372 -1568,673 -7,4 -16,7 -24,7zm425 -679l0 0c-142,0 -276,69 -358,186 -70,100 -95,226 -69,345l10 42c393,-239 813,-432 1250,-573l-833 0z"/>
   <path class="fil3" d="M8548 5059c-2,0 -3,-1 -4,-1l-413 -35c-13,-1 -25,-7 -33,-17 -7,-11 -11,-24 -9,-36l114 -665c2,-13 9,-24 19,-31 11,-7 24,-9 36,-7l299 61c21,5 37,24 37,46l0 638c0,13 -6,26 -15,34 -9,8 -20,13 -31,13zm-359 -123l0 0 312 26 0 -551 -215 -44 -97 569z"/>
   <path class="fil3" d="M11499 7475c-8,0 -17,-1 -26,-4 -944,-366 -1028,-1181 -851,-2557 83,-644 -70,-1168 -420,-1438 -261,-201 -607,-238 -949,-100 -765,309 -771,963 -771,969 0,40 -32,72 -71,72 0,0 0,0 0,0 -40,0 -71,-32 -72,-71 0,-31 7,-758 861,-1102 390,-157 787,-114 1089,119 390,302 563,874 474,1570 -171,1333 -100,2072 762,2405 36,14 55,55 40,92 -11,28 -37,45 -66,45z"/>
   <path class="fil3" d="M5015 5957c-14,0 -27,-7 -36,-18 -10,-12 -12,-28 -7,-43 8,-24 16,-48 27,-71 93,-197 278,-330 494,-357 112,-14 247,-27 398,-37 18,-1 34,7 43,22 9,14 9,32 1,47l-120 209c-70,122 -195,201 -334,212l-462 36c-1,0 -2,0 -4,0zm796 -427l0 0c-115,8 -218,18 -307,29 -182,23 -338,135 -419,300l389 -31c109,-8 206,-70 261,-165l76 -133z"/>
   <path class="fil3" d="M5969 6732c-14,0 -27,-6 -36,-17 -9,-11 -13,-26 -9,-40l49 -205c19,-78 85,-136 165,-145l944 -103c84,-9 162,37 196,115l104 242c6,13 4,29 -3,42 -8,13 -22,21 -37,22l-1370 89c-1,0 -2,0 -3,0zm1134 -418l0 0c-4,0 -8,0 -11,0l-944 103c-41,5 -75,35 -85,75l-35 144 1243 -81 -78 -182c-16,-36 -51,-59 -90,-59z"/>
  </g>
 </g>
</svg>
